<svg viewBox="0 0 130 35" xmlns="http://www.w3.org/2000/svg"><rect fill="#ec1d24" height="100%" width="100%"/><path d="M73.9 10.8h-3.2v14.8h11.4v-2.9h-8.2zm-10.7 9.5l-7.4-9.5h-3v14.8h3v-9.9l7.9 9.9h2.6V10.8h-3.2v9.5zm40 0l-7.4-9.5h-3v14.8h3v-9.9l7.9 9.9h2.6V10.8h-3.2v9.5zm19.8-6.7v-2.9h-12.3v14.8H123v-2.9h-9.1v-3.3h8.7v-2.7h-8.7v-2.9h9.1zm-37.8 12h3.2V10.8h-3.2zM41.1 23c-2.6 0-4.7-2.2-4.7-4.9s2.1-4.9 4.7-4.9 4.7 2.2 4.7 4.9-2.1 4.9-4.7 4.9zm0-12.7c-4.5 0-8.1 3.5-8.1 7.9s3.6 7.9 8.1 7.9 8.1-3.5 8.1-7.9c-.1-4.4-3.7-7.9-8.1-7.9zm-25.6 16h-3.1c-1 0-1.9-.4-2.6-1.1s-1.1-1.6-1.1-2.6V12.4c0-1 .4-1.9 1.1-2.6s1.6-1.1 2.6-1.1h3.1zM17.1 7h-4.6C9.4 7 7 9.4 7 12.4v10.2c0 3 2.4 5.4 5.4 5.4H17c.1 0 .2-.1.2-.2V7.2c0-.1-.1-.2-.1-.2zm6.4 13.7c-1.2 0-2.1-1-2.1-2.1s1-2.1 2.1-2.1c1.2 0 2.1 1 2.1 2.1s-.9 2.1-2.1 2.1zM22.7 7h-3.3c-.1 0-.1.1-.1.1v20.7c0 .1.1.2.2.2h3.3c3 0 5.4-2.4 5.4-5.4V12.4c0-3-2.5-5.4-5.5-5.4zm-12.4 6.3c0 1.1.9 2 2 2s2-.9 2-2-.9-2-2-2-2 .9-2 2z" fill="#fefefe"/></svg>