<svg xmlns="http://www.w3.org/2000/svg" viewBox="0 0 170.08 170.08" width="92" height="92"><title>Asset 1</title><rect width="170.08" height="170.08" rx="24.3" ry="24.3" style="fill:#fff"/><path d="M134.65,70.21l18.95,2.5a1,1,0,0,0,1.17-.89,69.48,69.48,0,0,0,0-15.92,1,1,0,0,0-1.16-.9l-19,2.47a1,1,0,0,0-.88,1.14,48.13,48.13,0,0,1,0,10.46,1,1,0,0,0,.88,1.14" style="fill:#f5aa00"/><path d="M125.09,93.19l15.16,11.65a1,1,0,0,0,1.46-.2,69.71,69.71,0,0,0,8-13.77,1,1,0,0,0-.56-1.36l-17.65-7.34a1,1,0,0,0-1.34.54,47,47,0,0,1-5.24,9.06,1,1,0,0,0,.2,1.42" style="fill:#e62d8c"/><path d="M131.46,45.52l17.66-7.3a1,1,0,0,0,.56-1.36,69.45,69.45,0,0,0-7.94-13.79,1,1,0,0,0-1.46-.2L125.1,34.49a1,1,0,0,0-.2,1.42A48.31,48.31,0,0,1,130.12,45a1,1,0,0,0,1.34.54" style="fill:#009682"/><path d="M45,34.51,29.83,22.87a1,1,0,0,0-1.46.2,69.22,69.22,0,0,0-8,13.77A1,1,0,0,0,21,38.2L38.6,45.54A1,1,0,0,0,39.94,45a47.83,47.83,0,0,1,5.25-9,1,1,0,0,0-.2-1.44" style="fill:#e6001e"/><path d="M35.43,57.5,16.48,55a1,1,0,0,0-1.17.9,69.48,69.48,0,0,0,0,15.92,1,1,0,0,0,1.16.9l18.95-2.47a1,1,0,0,0,.89-1.14,48.13,48.13,0,0,1,0-10.46,1,1,0,0,0-.88-1.14" style="fill:#a5c80f"/><path d="M38.62,82.19,21,89.49a1,1,0,0,0-.56,1.36,69.45,69.45,0,0,0,7.94,13.79,1,1,0,0,0,1.46.2L45,93.22a1,1,0,0,0,.2-1.42A47.76,47.76,0,0,1,40,82.73a1,1,0,0,0-1.34-.54" style="fill:#009beb"/><path d="M83.45,34.11C65.76,34.11,53,47.71,53,64,53,82.87,66.16,93.6,81.59,93.6c3.16,0,7.23-.4,9.65-1.43a1.5,1.5,0,0,0,.87-1.4V76.57a1,1,0,0,0-1.32-1,23,23,0,0,1-7.09,1c-5.62,0-12.08-4-12.08-13.07a12.12,12.12,0,0,1,12-12.36c8.12,0,13.1,5.66,13.1,13.16V91.18a1,1,0,0,0,1,1h16.61a1,1,0,0,0,1-1V63.49C115.44,45.87,102.82,34.11,83.45,34.11Z"/><path d="M27.2,123.39a12.06,12.06,0,0,0-12.35,12.09c0,7.65,5.34,12,11.59,12a11.4,11.4,0,0,0,3.91-.58.61.61,0,0,0,.35-.57v-5.75a.41.41,0,0,0-.53-.4,9.59,9.59,0,0,1-2.87.4,5.16,5.16,0,0,1,0-10.3,5.06,5.06,0,0,1,5.3,5.34V146.5a.42.42,0,0,0,.42.41h6.72a.42.42,0,0,0,.42-.41V135.28c0-7.13-5.11-11.89-12.95-11.89m60,.56H80.44a.41.41,0,0,0-.41.42V146.5a.41.41,0,0,0,.41.41h6.73a.41.41,0,0,0,.41-.41V124.37a.41.41,0,0,0-.41-.42m-3.36-10.68a4.3,4.3,0,1,0,4.29,4.3,4.23,4.23,0,0,0-4.29-4.3m11.52,0a4.3,4.3,0,1,0,4.3,4.3,4.23,4.23,0,0,0-4.3-4.3M98.69,124H92a.42.42,0,0,0-.42.42V146.5a.42.42,0,0,0,.42.41h6.72a.41.41,0,0,0,.42-.41V124.37a.42.42,0,0,0-.42-.42m44.34-.56a12,12,0,1,0,12.2,12,12.19,12.19,0,0,0-12.2-12m0,17.19a5.15,5.15,0,1,1,5.1-5.15,5,5,0,0,1-5.1,5.15M66.65,123.39a9,9,0,0,0-6.75,3.08,9.05,9.05,0,0,0-6.75-3.08c-5.25,0-9.41,3.32-9.41,8.83V146.5a.42.42,0,0,0,.42.41h6.72a.42.42,0,0,0,.42-.41V133a2.41,2.41,0,0,1,4.82,0V146.5a.42.42,0,0,0,.42.41h6.72a.42.42,0,0,0,.42-.41V133a2.41,2.41,0,0,1,4.82,0V146.5a.41.41,0,0,0,.41.41h6.73a.41.41,0,0,0,.41-.41V132.22c0-5.51-4.16-8.83-9.4-8.83m49.74,0a11,11,0,0,0-3.4.58.54.54,0,0,0-.38.53v5.83a.4.4,0,0,0,.53.39,9.71,9.71,0,0,1,2.69-.44,5.15,5.15,0,0,1-.08,10.3,5.13,5.13,0,0,1-5-5.15V114.26a.41.41,0,0,0-.41-.42h-6.73a.42.42,0,0,0-.42.42v21c0,7.24,4.92,12.27,12.76,12.27a12.38,12.38,0,0,0,12.55-12.1c0-6.73-4.59-12-12.08-12"/></svg>