<?xml version="1.0" encoding="UTF-8"?> <!-- Generator: Adobe Illustrator 21.1.0, SVG Export Plug-In . SVG Version: 6.00 Build 0) --> <svg xmlns="http://www.w3.org/2000/svg" xmlns:xlink="http://www.w3.org/1999/xlink" id="Layer_1" x="0px" y="0px" viewBox="0 0 114 154.3" style="enable-background:new 0 0 114 154.3;" xml:space="preserve"> <style type="text/css"> .st0{fill:#FFFFFF;} .st1{fill:#005DAA;} </style> <g> <g> <path class="st0" d="M114,0H0v154.3h114V0L114,0z"></path> </g> <polyline points="112.4,1.7 112.4,152.7 1.7,152.7 1.7,1.7 112.4,1.7 "></polyline> <g> <rect x="7.7" y="7.3" class="st0" width="98.7" height="23"></rect> </g> <g> <rect x="7.9" y="36" class="st0" width="98.6" height="89.8"></rect> </g> <g> <path d="M95,115.8v0.9h-2.1v6.2h-1.2v-6.2h-2.1v-0.9H95z M103.5,122.9h-1.2v-5.7h0l-2.1,5.7h-1l-2-5.7h0v5.7h-1.2v-7.2h1.9 l1.9,5.3h0l1.8-5.3h1.9V122.9z"></path> </g> <g> <path d="M13.5,11.7c2.2,0,3.1,0.6,3.1,2.6v3c0,1.9-0.9,2.6-2.9,2.6h-0.5V26h-1.8V11.7H13.5z M13.1,18.4h0.3c1.1,0,1.3-0.4,1.3-1.7 v-1.9c0-1.3-0.2-1.7-1.3-1.7h-0.3V18.4z"></path> <path d="M20,11.7c2.1,0,3,0.6,3,2.4v2.3c0,1.4-0.5,2.1-2,2.2c1.6,0.1,2.1,0.8,2.1,2.4v5h-1.9v-5c0-1.3-0.2-1.6-1.5-1.6h-0.4V26 h-1.8V11.7H20z M19.2,17.9h0.4c1.2,0,1.4-0.4,1.4-1.6v-1.5c0-1.2-0.3-1.6-1.4-1.6h-0.4V17.9z"></path> <path d="M26.3,11.7V26h-1.9V11.7H26.3z"></path> <path d="M28.9,11.7l1.3,12h0.1l1.2-12h1.6L31.4,26H29l-2-14.3H28.9z"></path> <path d="M37.9,11.7L40,26h-1.9l-0.5-3.6h-2.4L34.8,26h-1.7l2.3-14.3H37.9z M35.5,20.9h2l-0.9-7.6h-0.1L35.5,20.9z"></path> <path d="M46,15.6h-1.8v-1c0-1.1-0.2-1.7-0.8-1.7c-0.8,0-0.9,0.6-0.9,2v7.8c0,1.4,0.1,2,0.9,2c0.6,0,0.8-0.5,0.8-1.6v-1.3h1.9v1.3 c0,2.2-0.6,3.1-2.7,3.1c-2.2,0-2.7-1.1-2.7-3.8v-7.1c0-2.7,0.6-3.8,2.7-3.8c2.1,0,2.7,0.9,2.7,3.1V15.6z"></path> <path d="M47.9,11.7l1.3,6.3h0.1l1.2-6.3h1.7L50,20V26h-1.8V20L46,11.7H47.9z"></path> <path d="M60.9,15.6h-1.8v-1c0-1.1-0.2-1.7-0.8-1.7c-0.8,0-0.9,0.6-0.9,2v7.8c0,1.4,0.1,2,0.9,2c0.6,0,0.8-0.5,0.8-1.6v-1.3H61v1.3 c0,2.2-0.6,3.1-2.7,3.1c-2.2,0-2.7-1.1-2.7-3.8v-7.1c0-2.7,0.6-3.8,2.7-3.8c2.1,0,2.7,0.9,2.7,3.1V15.6z"></path> <path d="M66.3,11.7v1.5h-2.4v4.6h2.3v1.5h-2.3v5.2h2.6V26H62V11.7H66.3z"></path> <path d="M70,11.7c2.1,0,3,0.6,3,2.4v2.3c0,1.4-0.5,2.1-2,2.2c1.6,0.1,2.1,0.8,2.1,2.4v5h-1.9v-5c0-1.3-0.2-1.6-1.5-1.6h-0.4V26 h-1.8V11.7H70z M69.3,17.9h0.4c1.2,0,1.4-0.4,1.4-1.6v-1.5c0-1.2-0.3-1.6-1.4-1.6h-0.4V17.9z"></path> <path d="M78.9,11.7v1.5h-1.7V26h-1.9V13.2h-1.7v-1.5H78.9z"></path> <path d="M81.5,11.7V26h-1.9V11.7H81.5z"></path> <path d="M87.3,11.7v1.5h-2.4v4.7h2.3v1.5h-2.3V26h-1.8V11.7H87.3z"></path> <path d="M90.1,11.7V26h-1.9V11.7H90.1z"></path> <path d="M95.9,11.7v1.5h-2.4v4.6h2.3v1.5h-2.3v5.2h2.6V26h-4.4V11.7H95.9z"></path> <path d="M99.1,11.7c3,0,3.6,0.8,3.6,4V22c0,3.1-0.6,4-3.6,4h-1.9V11.7H99.1z M99,24.5h0.4c1.2,0,1.5-0.3,1.5-1.6v-8.2 c0-1.2-0.3-1.6-1.5-1.6H99V24.5z"></path> </g> <g> <g> <path class="st1" d="M78.1,72.4c0,0.6,0,1.2-0.1,1.7c0,0.1-0.1,0.4-0.1,0.5c-0.4,2.3-1.8,4.2-3.7,5.4c0.7,2.3,0.4,4.7-0.8,6.7 c-0.1,0.1-0.2,0.3-0.2,0.4c-1.3,1.9-3.3,3.2-5.6,3.6c0,0.3-0.1,0.6-0.2,0.8l21.2,11.3l-0.2-12.6l10.5-6.8L78.1,72.4z"></path> <path class="st1" d="M63.9,96.7c-2,1.3-4.5,1.7-6.8,1.1c-1.1,1.8-2.8,3.1-4.8,3.7c-0.2,0.1-0.4,0.1-0.6,0.1l-0.2,0 c-2.2,0.4-4.3,0-6.1-1.3l9.4,22.8l7.8-9.8l12.5,1.4L66.4,94C65.8,95.1,64.9,96,63.9,96.7z"></path> </g> <path class="st1" d="M17.5,59.2c-0.7,1.8-0.4,3.9,0.8,5.5l0.8,1l-1.1,0.8c-1.6,1.2-2.5,3.1-2.3,5.1c0.1,2,1.2,3.8,3,4.7l1.1,0.6 l-0.6,1.1c-0.9,1.6-1,3.6-0.2,5.3c0.1,0.1,0.1,0.3,0.2,0.4c0.9,1.7,2.6,2.8,4.6,2.9l1.3,0.1L25,88.1c-0.2,2,0.6,3.9,2.2,5.2 c1.6,1.2,3.6,1.6,5.5,0.9l1.2-0.4l0.4,1.2c0.6,1.9,2.2,3.3,4.2,3.8c1.9,0.5,3.9-0.1,5.3-1.4l0.9-0.9l0.9,1 c1.4,1.5,3.4,2.2,5.3,1.8l0.2,0c0.1,0,0.3-0.1,0.4-0.1c1.7-0.5,3.1-1.7,3.7-3.3l0.5-1.2l1.2,0.5c1.8,0.8,3.9,0.6,5.5-0.5 c1.7-1.1,2.6-3,2.6-5l0-1.3l1.3,0c1.9,0,3.7-1,4.8-2.5l0.2-0.3c1-1.7,1.1-3.7,0.3-5.5L71,78.8l1.2-0.5c1.7-0.8,3-2.3,3.3-4.2 c0-0.1,0-0.3,0.1-0.4c0.3-2-0.5-3.9-2-5.2l-1-0.8l0.9-1c1.3-1.5,1.8-3.5,1.3-5.3l0,0l0-0.2c-0.5-1.9-2-3.4-3.9-3.9L69.5,57 l0.4-1.2c0.6-1.9,0.2-4-1.1-5.5c-1.3-1.5-3.2-2.3-5.2-2l-1.3,0.2l-0.1-1.3c-0.2-2-1.4-3.7-3.2-4.5c-1.8-0.9-3.9-0.8-5.6,0.3 l-1.1,0.7l-0.7-1.1c-1-1.6-2.6-2.7-4.5-2.8c-0.1,0-0.3,0-0.5,0c-2,0-3.7,0.9-4.8,2.5l-0.7,1.1l-1-0.8c-1.6-1.1-3.7-1.4-5.5-0.7 c-1.9,0.8-3.2,2.4-3.5,4.3l-0.2,1.3L29.5,47c-1.8-0.4-3.8,0.2-5.2,1.5c-0.1,0.1-0.2,0.2-0.3,0.3c-1.3,1.4-1.9,3.4-1.4,5.3l0.3,1.3 l-1.3,0.3C19.8,56,18.2,57.4,17.5,59.2z"></path> <g> <path class="st0" d="M51.1,93.9c-12.7,2.7-25.5-5.1-29-17.6c-1.8-6.4-1-13.1,2.2-18.9c3.2-5.8,8.5-10,14.9-11.8 c13.3-3.8,27,4.1,30.8,17.1c1.8,6.4,1,13.1-2.2,18.9c-3.2,5.8-8.5,10-14.9,11.8C52.2,93.6,51.6,93.7,51.1,93.9z"></path> </g> <path class="st1" d="M41.4,47.6c-0.5,0.1-1,0.2-1.6,0.4c-5.7,1.6-10.5,5.4-13.4,10.6c-2.9,5.2-3.6,11.3-2,17 C27.8,87.4,40.2,94.4,52.1,91c5.7-1.6,10.5-5.4,13.4-10.6c2.9-5.2,3.6-11.3,2-17C64.3,52.1,52.8,45.2,41.4,47.6z"></path> </g> <g> <path class="st0" d="M33.3,58v10.1l3-10.1H39l-3.1,10l3.4,12.4h-2.8l-3.2-11.8v11.8h-2.8V58H33.3z"></path> <path class="st0" d="M43.4,58v2.8h-2.9V58H43.4z M43.3,64.8v15.6h-2.7V64.8H43.3z"></path> <path class="st0" d="M53.6,58v22.4H51l-0.2-1.3c-0.6,1.1-1.5,1.7-2.5,1.7c-1.9,0-2.6-1.2-2.6-3.9v-8.6c0-2.7,0.7-3.9,2.6-3.9 c1,0,1.9,0.6,2.5,1.6v-8H53.6z M49.7,66.6c-0.9,0-1.2,0.7-1.2,2.2v7.6c0,1.5,0.2,2.2,1.2,2.2c0.9,0,1.2-0.7,1.2-2.2v-7.6 C50.9,67.3,50.6,66.6,49.7,66.6z"></path> <path class="st0" d="M63.1,69.4h-2.6v-0.8c0-1.5-0.1-2.1-1-2.1c-0.7,0-1,0.4-1,1.6v0.6c0,0.6,0.4,1.2,1.2,2l2.2,2.4 c0.9,1,1.4,1.8,1.4,2.8V77c0,2.6-1.2,3.8-3.8,3.8c-2.9,0-3.7-1.2-3.7-4.3v-1.1h2.6v1.2c0,1.5,0.2,2.1,1,2.1c0.9,0,1.2-0.5,1.2-1.8 v-0.6c0-0.7-0.3-1.4-1.1-2.2L57.3,72c-0.8-0.9-1.5-1.6-1.5-3v-0.9c0-2.4,1.3-3.6,3.7-3.6c2.6,0,3.6,1.2,3.6,4.1V69.4z"></path> </g> <g> <g> <polygon class="st0" points="8,145.5 8,131.9 27.8,131.9 27.8,135.1 15.9,135.1 15.9,137 26,137 26,140.2 15.9,140.2 15.9,142.3 28.3,142.3 28.3,145.5 "></polygon> </g> <g> <path class="st0" d="M45.1,135.9c-0.1-0.5-0.6-0.7-1.2-0.9c-0.6-0.2-1.3-0.3-2.1-0.3c-1.8,0-2.5,0.3-2.5,0.8c0,2,14,0.8,14,5.7 c0,3.1-4.7,4.7-11.4,4.7c-6.4,0-10.6-2.1-10.8-4.5h7.6c0.2,0.5,0.6,0.8,1.3,1.1c0.6,0.2,1.5,0.3,2.3,0.3c2,0,3.3-0.3,3.3-1 c0-2-14-0.6-14-5.8c0-2.9,4.5-4.3,10.6-4.3c6.8,0,9.8,1.9,10.4,4.3H45.1z"></path> </g> <g> <path class="st0" d="M65.3,137.8h3.1c2.5,0,3.8-0.4,3.8-1.3c0-1-1.4-1.4-3.2-1.4h-3.7V137.8z M65.3,140.8v4.7h-8v-13.5h11.5 c8.1,0,10.8,1.2,10.8,3.9c0,1.6-1.2,2.9-4.1,3.3c2.6,0.5,4.1,0.8,4.1,3.6c0,1.8-0.1,2.4,0.8,2.4v0.4h-8.1 c-0.2-0.3-0.4-1.2-0.4-2.4c0-1.8-0.5-2.3-4.3-2.3H65.3z"></path> </g> <g> <path class="st0" d="M92.5,135.1v2.3h3.3c1.6,0,2.7-0.4,2.7-1.2c0-1.1-1.6-1.1-3.2-1.1H92.5z M92.5,139.8v2.5H96 c2,0,3.5-0.2,3.5-1.2c0-1.2-1.9-1.3-4.4-1.3H92.5z M84.5,145.5v-13.5h11.6c5.5,0,9.8,0.7,9.8,3.4c0,1.4-1.6,2.4-3.2,2.9 c2.6,0.4,4.1,1.6,4.1,3.1c0,3-4.2,4.1-10.5,4.1H84.5z"></path> </g> </g> </g> </svg> 